
Prom 1: First Night of the Proms

The 118th season of BBC Proms gets underway at the Royal Albert Hall with a spectacular concert of all-English music. In the year of the London Olympics there is something of a relay race around the podium with no less than four conductors passing the baton in the course of the evening - Sir Roger Norrington, Sir Mark Elder, Edward Gardner and Martyn Brabbins. Welsh bass-baritone Bryn Terfel is the soloist in Delius' evocative Sea Drift, and a quartet of Proms favourite singers feature in Elgar's Coronation Ode - Susan Gritton, Sarah Connolly, Robert Murray and Gerald Finley. Elgar's effervescent Cockaigne Overture, Tippett's Suite for the Birthday of Prince Charles and a brand new virtuosic curtain-raiser by Mark-Anthony Turnage complete the programme. The BBC Symphony Orchestra and Chorus take their traditional place on stage for a special First Night.

Mark-Anthony Turnage - Canon Fever (3 mins)
Elgar - Overture 'Cockaigne (In London Town)' (15 mins)
Delius - Sea Drift (25 mins)
Tippett - Suite for the Birthday of Prince Charles (16 mins)
Elgar - Coronation Ode (33 mins)

Video
ID                                       : 1
Format                                   : AVC
Format/Info                              : Advanced Video Codec
Format profile                           : High@L4.1
Format settings, CABAC                   : Yes
Format settings, ReFrames                : 6 frames
Codec ID                                 : avc1
Codec ID/Info                            : Advanced Video Coding
Duration                                 : 2h 6mn
Bit rate mode                            : Variable
Bit rate                                 : 2 607 Kbps
Maximum bit rate                         : 3 500 Kbps
Width                                    : 1 280 pixels
Height                                   : 720 pixels
Display aspect ratio                     : 16:9
Frame rate mode                          : Constant
Frame rate                               : 25.000 fps
Standard                                 : PAL
Color space                              : YUV
Chroma subsampling                       : 4:2:0
Bit depth                                : 8 bits
Scan type                                : Progressive
Bits/(Pixel*Frame)                       : 0.113
Stream size                              : 2.30 GiB (96%)

Audio
ID                                       : 2
Format                                   : AAC
Format/Info                              : Advanced Audio Codec
Format profile                           : HE-AAC / LC
Codec ID                                 : 40
Duration                                 : 2h 6mn
Bit rate mode                            : Constant
Bit rate                                 : 96.0 Kbps
Channel(s)                               : 2 channels
Channel positions                        : Front: L R
Sampling rate                            : 48.0 KHz / 24.0 KHz
Compression mode                         : Lossy
Stream size                              : 85.7 MiB (3%)
